<mxfile host="app.diagrams.net" modified="2021-06-27T10:02:22.528Z" agent="5.0 (Windows NT 10.0; Win64; x64) AppleWebKit/537.36 (KHTML, like Gecko) Chrome/91.0.4472.124 Safari/537.36" etag="s8jVIVTzER3AJmDJ_LXD" version="14.8.1" type="github">
  <diagram id="sh2bsfSUArGO5emQCmAt" name="Page-1">
    <mxGraphModel dx="1038" dy="579" grid="1" gridSize="10" guides="1" tooltips="1" connect="1" arrows="1" fold="1" page="1" pageScale="1" pageWidth="850" pageHeight="1100" math="0" shadow="0">
      <root>
        <mxCell id="0" />
        <mxCell id="1" parent="0" />
        <mxCell id="kaELmpgGxG4HrhlpVhhm-6" style="edgeStyle=orthogonalEdgeStyle;rounded=0;orthogonalLoop=1;jettySize=auto;html=1;exitX=0.5;exitY=0;exitDx=0;exitDy=0;" edge="1" parent="1" source="kaELmpgGxG4HrhlpVhhm-1" target="kaELmpgGxG4HrhlpVhhm-3">
          <mxGeometry relative="1" as="geometry">
            <mxPoint x="690" y="230" as="targetPoint" />
            <Array as="points">
              <mxPoint x="140" y="240" />
              <mxPoint x="670" y="240" />
            </Array>
          </mxGeometry>
        </mxCell>
        <mxCell id="kaELmpgGxG4HrhlpVhhm-14" style="edgeStyle=orthogonalEdgeStyle;rounded=0;orthogonalLoop=1;jettySize=auto;html=1;exitX=0.5;exitY=1;exitDx=0;exitDy=0;entryX=0.59;entryY=1.047;entryDx=0;entryDy=0;entryPerimeter=0;" edge="1" parent="1" source="kaELmpgGxG4HrhlpVhhm-1" target="kaELmpgGxG4HrhlpVhhm-3">
          <mxGeometry relative="1" as="geometry">
            <mxPoint x="680" y="390" as="targetPoint" />
            <Array as="points">
              <mxPoint x="140" y="410" />
              <mxPoint x="677" y="410" />
            </Array>
          </mxGeometry>
        </mxCell>
        <mxCell id="kaELmpgGxG4HrhlpVhhm-1" value="" style="whiteSpace=wrap;html=1;aspect=fixed;" vertex="1" parent="1">
          <mxGeometry x="100" y="260" width="80" height="80" as="geometry" />
        </mxCell>
        <mxCell id="kaELmpgGxG4HrhlpVhhm-2" value="Client" style="text;html=1;strokeColor=none;fillColor=none;align=center;verticalAlign=middle;whiteSpace=wrap;rounded=0;" vertex="1" parent="1">
          <mxGeometry x="120" y="290" width="40" height="20" as="geometry" />
        </mxCell>
        <mxCell id="kaELmpgGxG4HrhlpVhhm-10" style="edgeStyle=orthogonalEdgeStyle;rounded=0;orthogonalLoop=1;jettySize=auto;html=1;exitX=0;exitY=0.5;exitDx=0;exitDy=0;entryX=1;entryY=0.5;entryDx=0;entryDy=0;" edge="1" parent="1" source="kaELmpgGxG4HrhlpVhhm-3" target="kaELmpgGxG4HrhlpVhhm-1">
          <mxGeometry relative="1" as="geometry" />
        </mxCell>
        <mxCell id="kaELmpgGxG4HrhlpVhhm-3" value="server" style="whiteSpace=wrap;html=1;aspect=fixed;" vertex="1" parent="1">
          <mxGeometry x="630" y="260" width="80" height="80" as="geometry" />
        </mxCell>
        <mxCell id="kaELmpgGxG4HrhlpVhhm-7" value="Token Based- Stateless" style="text;html=1;strokeColor=none;fillColor=none;align=center;verticalAlign=middle;whiteSpace=wrap;rounded=0;" vertex="1" parent="1">
          <mxGeometry x="350" y="180" width="130" height="30" as="geometry" />
        </mxCell>
        <mxCell id="kaELmpgGxG4HrhlpVhhm-8" value="username &amp;amp; password" style="text;html=1;strokeColor=none;fillColor=none;align=center;verticalAlign=middle;whiteSpace=wrap;rounded=0;" vertex="1" parent="1">
          <mxGeometry x="395" y="250" width="40" height="20" as="geometry" />
        </mxCell>
        <mxCell id="kaELmpgGxG4HrhlpVhhm-11" value="access_token" style="text;html=1;strokeColor=none;fillColor=none;align=center;verticalAlign=middle;whiteSpace=wrap;rounded=0;" vertex="1" parent="1">
          <mxGeometry x="395" y="300" width="40" height="20" as="geometry" />
        </mxCell>
        <mxCell id="kaELmpgGxG4HrhlpVhhm-15" value="access_token" style="text;html=1;strokeColor=none;fillColor=none;align=center;verticalAlign=middle;whiteSpace=wrap;rounded=0;" vertex="1" parent="1">
          <mxGeometry x="395" y="390" width="40" height="20" as="geometry" />
        </mxCell>
        <mxCell id="kaELmpgGxG4HrhlpVhhm-16" value="Products" style="text;html=1;strokeColor=none;fillColor=none;align=center;verticalAlign=middle;whiteSpace=wrap;rounded=0;" vertex="1" parent="1">
          <mxGeometry x="680" y="370" width="60" height="20" as="geometry" />
        </mxCell>
      </root>
    </mxGraphModel>
  </diagram>
</mxfile>
